<svg preserveAspectRatio="none" width="100%" height="100%" overflow="visible" style="display: block;" viewBox="0 0 17.5 22.0459" fill="none" xmlns="http://www.w3.org/2000/svg">
<g id="Group 9">
<path id="Arrow 1" d="M0.75 4.77297C0.335786 4.77297 0 5.10876 0 5.52297C0 5.93718 0.335786 6.27297 0.75 6.27297V5.52297V4.77297ZM17.2803 6.0533C17.5732 5.76041 17.5732 5.28553 17.2803 4.99264L12.5074 0.21967C12.2145 -0.0732231 11.7396 -0.0732231 11.4467 0.21967C11.1538 0.512564 11.1538 0.987437 11.4467 1.28033L15.6893 5.52297L11.4467 9.76561C11.1538 10.0585 11.1538 10.5334 11.4467 10.8263C11.7396 11.1192 12.2145 11.1192 12.5074 10.8263L17.2803 6.0533ZM0.75 5.52297V6.27297H16.75V5.52297V4.77297H0.75V5.52297Z" fill="var(--stroke-0, white)" fill-opacity="0.75"/>
<path id="Arrow 2" d="M16.75 17.273C17.1642 17.273 17.5 16.9372 17.5 16.523C17.5 16.1088 17.1642 15.773 16.75 15.773L16.75 16.523L16.75 17.273ZM0.219669 15.9926C-0.0732231 16.2855 -0.0732231 16.7604 0.219669 17.0533L4.99264 21.8263C5.28553 22.1192 5.76041 22.1192 6.0533 21.8263C6.34619 21.5334 6.34619 21.0585 6.0533 20.7656L1.81066 16.523L6.0533 12.2803C6.34619 11.9874 6.34619 11.5126 6.0533 11.2197C5.76041 10.9268 5.28553 10.9268 4.99264 11.2197L0.219669 15.9926ZM16.75 16.523L16.75 15.773L0.75 15.773L0.75 16.523L0.75 17.273L16.75 17.273L16.75 16.523Z" fill="var(--stroke-0, white)" fill-opacity="0.75"/>
</g>
</svg>
