<svg width="203" height="203" viewBox="0 0 203 203" fill="none" xmlns="http://www.w3.org/2000/svg">
<path opacity="0.2" d="M184.207 100.679C184.437 146.583 147.405 183.982 101.496 184.214C55.6076 184.44 18.2056 147.409 17.9786 101.507C17.7421 55.5997 54.7698 18.1959 100.666 17.9676C146.573 17.7368 183.973 54.7732 184.204 100.68L184.207 100.679Z" fill="#F7931A"/>
<path fill-rule="evenodd" clip-rule="evenodd" d="M122.971 85.5488C122.205 77.9992 115.672 75.4995 107.436 74.8195L107.383 64.3418L101.004 64.3748L101.055 74.5763C99.3806 74.5845 97.6669 74.6262 95.9644 74.6687L95.914 64.3996L89.5397 64.4313L89.5898 74.906C88.2091 74.9411 86.8533 74.9735 85.5311 74.981L85.5301 74.9485L76.7337 74.9895L76.7694 81.8011C76.7694 81.8011 81.4786 81.6877 81.4008 81.7748C83.9841 81.7627 84.8341 83.2578 85.0834 84.5511L85.1437 96.4874C85.3219 96.4874 85.5545 96.4937 85.818 96.5285L85.146 96.5322L85.2263 113.254C85.117 114.068 84.6456 115.366 82.8408 115.379C82.9227 115.45 78.2047 115.401 78.2047 115.401L76.9761 123.025L85.2774 122.983C86.2145 122.979 87.1426 122.985 88.0605 122.99L88.0615 122.99L88.0633 122.99C88.6572 122.994 89.2469 122.997 89.832 122.998L89.8881 133.597L96.2589 133.566L96.208 123.08C97.9557 123.108 99.6486 123.114 101.301 123.104L101.351 133.541L107.728 133.508L107.677 122.93C118.396 122.261 125.889 119.522 126.768 109.451C127.48 101.34 123.649 97.7406 117.555 96.3077C121.242 94.4029 123.538 91.0738 122.969 85.5493L122.971 85.5488ZM114.16 108.253C114.198 115.521 102.777 115.418 97.5557 115.371L97.5553 115.371C97.0879 115.367 96.6702 115.363 96.3149 115.365L96.2463 101.325C96.6807 101.323 97.2082 101.307 97.8058 101.29L97.8062 101.29C103.156 101.137 114.12 100.824 114.162 108.252L114.16 108.253ZM97.2635 94.9053C101.623 94.9548 111.124 95.0628 111.093 88.459C111.06 81.7032 101.921 81.9918 97.4574 82.1327C96.9556 82.1485 96.513 82.1625 96.1489 82.1644L96.2123 94.8983C96.5127 94.8968 96.8668 94.9008 97.2635 94.9053Z" fill="#F7931A"/>
</svg>
