<svg width="167" height="167" viewBox="0 0 167 167" fill="none" xmlns="http://www.w3.org/2000/svg">
<path opacity="0.2" d="M83.1427 166.285C129.061 166.285 166.285 129.061 166.285 83.1427C166.285 37.2242 129.061 9.65677e-08 83.1427 2.1569e-07C37.2242 3.34812e-07 9.65677e-08 37.2242 2.1569e-07 83.1427C3.34812e-07 129.061 37.2242 166.285 83.1427 166.285Z" fill="#32A4BE"/>
<path opacity="0.2" d="M83.1427 166.285C129.061 166.285 166.285 129.061 166.285 83.1427C166.285 37.2242 129.061 9.65677e-08 83.1427 2.1569e-07C37.2242 3.34812e-07 9.65677e-08 37.2242 2.1569e-07 83.1427C3.34812e-07 129.061 37.2242 166.285 83.1427 166.285Z" fill="#C2A633"/>
<mask id="mask0_1_3316" style="mask-type:luminance" maskUnits="userSpaceOnUse" x="0" y="0" width="167" height="167">
<path d="M83.1427 166.285C129.061 166.285 166.285 129.061 166.285 83.1427C166.285 37.2242 129.061 9.65677e-08 83.1427 2.1569e-07C37.2242 3.34812e-07 9.65677e-08 37.2242 2.1569e-07 83.1427C3.34812e-07 129.061 37.2242 166.285 83.1427 166.285Z" fill="white"/>
</mask>
<g mask="url(#mask0_1_3316)">
<path fill-rule="evenodd" clip-rule="evenodd" d="M84.5181 49.7942L61.8168 49.7942L61.8168 79.9449L47.9669 79.9449L47.9669 89.9951L61.8168 89.9951L61.8168 120.146L84.5181 120.146C96.5005 120.146 99.0824 118.891 104.246 116.381C104.647 116.186 105.064 115.984 105.501 115.774C111.576 112.859 116.296 108.756 119.663 103.462C123.031 98.1692 124.714 92.0052 124.714 84.97C124.714 77.9348 123.031 71.7707 119.663 66.4776C116.296 61.1845 111.576 57.0807 105.501 54.1661C99.4267 51.2515 92.4324 49.7942 84.5181 49.7942ZM78.6866 89.9951L78.6866 106.779L83.685 106.779C90.9745 106.779 96.7886 104.819 101.128 100.9C105.467 96.98 107.636 91.6702 107.636 84.97C107.636 78.2698 105.467 72.96 101.128 69.0404C96.7886 65.1208 90.9745 63.161 83.685 63.161L78.6866 63.161L78.6866 79.9449L94.8274 79.9449L94.8274 89.9951L78.6866 89.9951Z" fill="#C2A633"/>
</g>
</svg>
